{"title":"Mercenaries 2011 DVDRip XviD AC3-SKmbr","uid":6867507,"size":1560219648,"categoryP":"video","categoryS":"movies","magnet":"?xt=urn:btih:ef5cb98aa920e0b827700ec990ede439a189b74c&amp;dn=Mercenaries+2011+DVDRip+XviD+AC3-SKmbr&amp;tr=udp%3A%2F%2Ftracker.openbittorrent.com%3A80&amp;tr=udp%3A%2F%2Fopen.demonii.com%3A1337&amp;tr=udp%3A%2F%2Ftracker.coppersurfer.tk%3A6969&amp;tr=udp%3A%2F%2Fexodus.desync.com%3A6969","seeders":0,"leechers":1,"uploader":"MisterNobody","files":1,"time":1323162290,"description":"Mercenaries (2011)\nAction | Drama &lt;a href=&quot;\nhttp://www.imdb.com/title/tt1728979/&quot; rel=&quot;nofollow&quot; target=&quot;_NEW&quot;&gt;\nhttp://www.imdb.com/title/tt1728979/&lt;/a&gt;\n \nAndy Marlow, an ex British S.A.S serviceman turned mercenary, is sent into the Balkans after a military coup has arisen to rescue a U.S ambassador and his aide.\n \nDirector: Paris Leonti\nWriter: Paris Leonti (screenplay)\nStars: Robert Fucilla, Billy Zane and Kirsty Mitchell\n \nSIZE:1.45 GB\n720X296, 2238 kb/s. 25.000 fps\nEnglish, AC3, 384 Kbps\n \nGeneral\nComplete name                            : /home/Mercenaries.2011.DVDRip.XviD.AC3-SKmbr.avi\nFormat                                   : AVI\nFormat/Info                              : Audio Video Interleave\nFile size                                : 1.45 GiB\nDuration                                 : 1h 32mn\nOverall bit rate                         : 2 237 Kbps\nWriting application                      : VirtualDubMod 1.5.10.2 (build 2542/release)\nWriting library                          : VirtualDubMod build 2542/release\n \nVideo\nID                                       : 0\nFormat                                   : MPEG-4 Visual\nFormat profile                           : Advanced Simple@L5\nFormat settings, BVOP                    : 4\nFormat settings, QPel                    : No\nFormat settings, GMC                     : No warppoints\nFormat settings, Matrix                  : Default (H.263)\nCodec ID                                 : XVID\nCodec ID/Hint                            : XviD\nDuration                                 : 1h 32mn\nBit rate                                 : 1 844 Kbps\nWidth                                    : 720 pixels\nHeight                                   : 296 pixels\nDisplay aspect ratio                     : 2.40:1\nFrame rate                               : 25.000 fps\nColor space                              : YUV\nChroma subsampling                       : 4:2:0\nBit depth                                : 8 bits\nScan type                                : Progressive\nCompression mode                         : Lossy\nBits/(Pixel*Frame)                       : 0.346\nStream size                              : 1.20 GiB (82%)\nWriting library                          : XviD 1.2.1 (UTC 2008-12-04)\n \nAudio\nID                                       : 1\nFormat                                   : AC-3\nFormat/Info                              : Audio Coding 3\nMode extension                           : CM (complete main)\nCodec ID                                 : 2000\nDuration                                 : 1h 32mn\nBit rate mode                            : Constant\nBit rate                                 : 384 Kbps\nChannel(s)                               : 6 channels\nChannel positions                        : Front: L C R, Side: L R, LFE\nSampling rate                            : 48.0 KHz\nBit depth                                : 16 bits\nCompression mode                         : Lossy\nStream size                              : 255 MiB (17%)\nAlignment                                : Split accross interleaves\nInterleave, duration                     : 40 ms (1.00 video frame)\nInterleave, preload duration             : 500 ms","torrent":{"xt":"urn:btih:ef5cb98aa920e0b827700ec990ede439a189b74c","amp;dn":"Mercenaries+2011+DVDRip+XviD+AC3-SKmbr","amp;tr":["udp%3A%2F%2Ftracker.openbittorrent.com%3A80","udp%3A%2F%2Fopen.demonii.com%3A1337","udp%3A%2F%2Ftracker.coppersurfer.tk%3A6969","udp%3A%2F%2Fexodus.desync.com%3A6969"],"infoHash":"ef5cb98aa920e0b827700ec990ede439a189b74c","infoHashBuffer":{"type":"Buffer","data":[239,92,185,138,169,32,224,184,39,112,14,201,144,237,228,57,161,137,183,76]},"announce":[],"urlList":[]}}